# File created by Blade
# Date/Time:  Thu Sep 25 18:58:07 2014
# Frame Rate: 120.000 fps
#------------------------------------------------------
:FULLY-SPECIFIED
:DEGREES
3026
root 1.532936 32.951287 0.820377 5.339450 2.250532 0.086031
Spine -5.361894 3.948840 -0.279180
Head -14.944689 -7.095732 12.151460
LeftShoulder -9.917222 10.910020 29.320064
LeftArm 20.224318 -15.907883 -25.722646
LeftForeArm 20.404843 -0.000000 13.034570
LeftHand -27.205361 0.000000 -12.039888
LeftHandThumb1 -26.253704 0.000000 33.147579
RightShoulder -19.058907 19.556467 -37.773333
RightArm -3.225197 2.398149 30.215024
RightForeArm -37.119708 -0.000000 13.593282
RightHand -11.343225 -0.000000 17.913546
RightHandThumb1 -24.326973 -0.000000 -32.862282
LeftUpLeg -1.274787 9.363619 3.885771
LeftLeg -1.688977 -0.000000 0.000000
LeftFoot -5.028740 -4.060066 -18.144902
LeftToeBase 9.110142 -0.000000 -0.000000
RightUpLeg -1.088673 -10.896947 -6.752070
RightLeg 1.085079 -0.000000 -0.000000
RightFoot -4.068759 -2.121686 3.986400
RightToeBase -2.595476 -0.000000 0.000000
3027
root 1.530491 32.951098 0.819510 5.356936 2.261348 0.087660
Spine -5.378937 3.949282 -0.293958
Head -14.950877 -7.148464 12.160062
LeftShoulder -9.949658 10.912607 29.296489
LeftArm 20.208980 -15.920796 -25.681183
LeftForeArm 20.367869 -0.000000 13.020853
LeftHand -27.343319 0.000000 -11.881889
LeftHandThumb1 -26.253704 0.000000 33.147579
RightShoulder -19.095273 19.542233 -37.803964
RightArm -3.287835 2.482658 30.245912
RightForeArm -37.211484 -0.000000 13.644563
RightHand -11.272872 -0.000000 18.006206
RightHandThumb1 -24.326973 -0.000000 -32.862282
LeftUpLeg -1.291938 9.364436 3.888569
LeftLeg -1.696317 -0.000000 0.000000
LeftFoot -5.028883 -4.076490 -18.167838
LeftToeBase 9.157953 -0.000000 -0.000000
RightUpLeg -1.103669 -10.899833 -6.747402
RightLeg 1.080271 -0.000000 -0.000000
RightFoot -4.064942 -2.123102 3.987965
RightToeBase -2.625873 -0.000000 0.000000
3028
root 1.524819 32.950802 0.819636 5.366296 2.274950 0.058079
Spine -5.396046 3.955414 -0.268572
Head -14.933964 -7.195866 12.149405
LeftShoulder -9.955536 10.882065 29.297130
LeftArm 20.133223 -15.959932 -25.675010
LeftForeArm 20.449368 0.000000 13.065799
LeftHand -27.291231 -0.000000 -11.909789
LeftHandThumb1 -26.253704 0.000000 33.147579
RightShoulder -19.125803 19.528003 -37.794891
RightArm -3.302936 2.478957 30.216958
RightForeArm -37.116439 -0.000000 13.651874
RightHand -11.227460 -0.000000 17.805444
RightHandThumb1 -24.326973 -0.000000 -32.862282
LeftUpLeg -1.333186 9.497785 3.917663
LeftLeg -1.638958 -0.000000 0.000000
LeftFoot -5.032941 -4.203764 -18.121915
LeftToeBase 9.152097 -0.000000 -0.000000
RightUpLeg -1.106316 -10.889172 -6.703203
RightLeg 1.067269 -0.000000 -0.000000
RightFoot -4.052602 -2.148387 3.991048
RightToeBase -2.618157 -0.000000 0.000000
3029
root 1.525675 32.950843 0.818380 5.386710 2.289038 0.081033
Spine -5.425209 3.937889 -0.301500
Head -14.910079 -7.237213 12.157686
LeftShoulder -10.012725 10.925788 29.306571
LeftArm 20.138709 -16.003727 -25.699754
LeftForeArm 20.437565 -0.000000 13.134890
LeftHand -27.316837 -0.000000 -12.086063
LeftHandThumb1 -26.253704 0.000000 33.147579
RightShoulder -19.138928 19.527177 -37.799237
RightArm -3.338207 2.526356 30.221758
RightForeArm -37.110554 -0.000000 13.673041
RightHand -11.315871 -0.000000 17.786516
RightHandThumb1 -24.326973 -0.000000 -32.862282
LeftUpLeg -1.322446 9.367586 3.898208
LeftLeg -1.709060 -0.000000 0.000000
LeftFoot -5.004750 -4.102368 -18.160721
LeftToeBase 9.169624 -0.000000 -0.000000
RightUpLeg -1.130001 -10.904155 -6.722700
RightLeg 1.078611 -0.000000 -0.000000
RightFoot -4.070884 -2.153505 3.971061
RightToeBase -2.615814 -0.000000 0.000000
3030
root 1.522550 32.950816 0.818348 5.401435 2.302685 0.075697
Spine -5.453845 3.929847 -0.309685
Head -14.871761 -7.276581 12.167883
LeftShoulder -10.047963 10.916308 29.314187
LeftArm 20.104661 -16.028185 -25.700204
LeftForeArm 20.484670 -0.000000 13.190471
LeftHand -27.294508 -0.000000 -12.110865
LeftHandThumb1 -26.253704 0.000000 33.147579
RightShoulder -19.154500 19.508125 -37.799210
RightArm -3.352575 2.531771 30.228291
RightForeArm -37.064874 -0.000000 13.668907
RightHand -11.361821 0.000000 17.720452
RightHandThumb1 -24.326973 -0.000000 -32.862282
LeftUpLeg -1.330321 9.349076 3.909377
LeftLeg -1.729920 -0.000000 0.000000
LeftFoot -5.002070 -4.094498 -18.222250
LeftToeBase 9.168328 -0.000000 -0.000000
RightUpLeg -1.138806 -10.922157 -6.709228
RightLeg 1.073279 -0.000000 -0.000000
RightFoot -4.075517 -2.148420 3.968430
RightToeBase -2.607528 -0.000000 0.000000
3031
root 1.520008 32.950311 0.818590 5.414920 2.315889 0.076219
Spine -5.479293 3.927131 -0.318257
Head -14.838244 -7.312313 12.167286
LeftShoulder -10.077720 10.923855 29.294197
LeftArm 20.123172 -15.997927 -25.648461
LeftForeArm 20.384198 -0.000000 13.133202
LeftHand -27.393549 0.000000 -12.013384
LeftHandThumb1 -26.253704 0.000000 33.147579
RightShoulder -19.187741 19.511597 -37.842228
RightArm -3.396668 2.557574 30.266897
RightForeArm -37.036342 -0.000000 13.699731
RightHand -11.549425 0.000000 17.910716
RightHandThumb1 -24.326973 -0.000000 -32.862282
LeftUpLeg -1.342355 9.343143 3.911666
LeftLeg -1.735838 -0.000000 0.000000
LeftFoot -5.004998 -4.099346 -18.197066
LeftToeBase 9.199422 -0.000000 -0.000000
RightUpLeg -1.143331 -10.924765 -6.702737
RightLeg 1.060658 -0.000000 -0.000000
RightFoot -4.077329 -2.155588 3.966595
RightToeBase -2.597268 -0.000000 0.000000
3032
root 1.517895 32.950187 0.819462 5.424299 2.327029 0.070111
Spine -5.506542 3.937253 -0.316531
Head -14.790252 -7.358314 12.152765
LeftShoulder -10.104504 10.970398 29.274688
LeftArm 20.158510 -16.047928 -25.633701
LeftForeArm 20.314943 -0.000000 13.101410
LeftHand -27.420525 -0.000000 -12.016516
LeftHandThumb1 -26.253704 0.000000 33.147579
RightShoulder -19.225952 19.498187 -37.859135
RightArm -3.398172 2.580482 30.269527
RightForeArm -37.031657 -0.000000 13.681117
RightHand -11.462587 -0.000000 17.757155
RightHandThumb1 -24.326973 -0.000000 -32.862282
LeftUpLeg -1.348177 9.363375 3.918587
LeftLeg -1.747018 -0.000000 0.000000
LeftFoot -4.980550 -4.126448 -18.185827
LeftToeBase 9.144034 -0.000000 -0.000000
RightUpLeg -1.143572 -10.927367 -6.690615
RightLeg 1.048885 -0.000000 -0.000000
RightFoot -4.070642 -2.158572 3.974086
RightToeBase -2.626456 -0.000000 0.000000
3033
root 1.515149 32.950205 0.819499 5.436624 2.342189 0.064916
Spine -5.538897 3.942068 -0.325923
Head -14.732647 -7.404968 12.172151
LeftShoulder -10.105463 10.951466 29.277839
LeftArm 20.118436 -16.060989 -25.608915
LeftForeArm 20.250131 -0.000000 13.106966
LeftHand -27.422851 -0.000000 -12.022422
LeftHandThumb1 -26.253704 0.000000 33.147579
RightShoulder -19.245158 19.484751 -37.854460
RightArm -3.418317 2.609489 30.263656
RightForeArm -36.927425 -0.000000 13.675793
RightHand -11.424609 -0.000000 17.699475
RightHandThumb1 -24.326973 -0.000000 -32.862282
LeftUpLeg -1.357952 9.353755 3.927359
LeftLeg -1.759480 -0.000000 0.000000
LeftFoot -4.986730 -4.121473 -18.186226
LeftToeBase 9.193862 -0.000000 -0.000000
RightUpLeg -1.149861 -10.942561 -6.677716
RightLeg 1.042311 -0.000000 -0.000000
RightFoot -4.076745 -2.159045 3.958325
RightToeBase -2.608791 -0.000000 0.000000
3034
root 1.512365 32.950296 0.820540 5.442737 2.356363 0.061383
Spine -5.568571 3.943833 -0.335916
Head -14.661940 -7.446424 12.185893
LeftShoulder -10.126685 10.989815 29.293232
LeftArm 20.139897 -16.175665 -25.671252
LeftForeArm 20.183720 0.000000 13.108419
LeftHand -27.449717 -0.000000 -11.850125
LeftHandThumb1 -26.253704 0.000000 33.147579
RightShoulder -19.258761 19.476469 -37.853734
RightArm -3.447654 2.646699 30.261171
RightForeArm -36.886909 -0.000000 13.685716
RightHand -11.408699 -0.000000 17.694596
RightHandThumb1 -24.326973 -0.000000 -32.862282
LeftUpLeg -1.361610 9.349868 3.936881
LeftLeg -1.766110 -0.000000 0.000000
LeftFoot -4.965556 -4.129899 -18.166901
LeftToeBase 9.108715 -0.000000 -0.000000
RightUpLeg -1.144836 -10.942846 -6.668911
RightLeg 1.030345 -0.000000 -0.000000
RightFoot -4.075201 -2.169246 3.964205
RightToeBase -2.615873 -0.000000 0.000000
3035
root 1.510406 32.949987 0.821286 5.445519 2.369826 0.058911
Spine -5.592301 3.947934 -0.338853
Head -14.593576 -7.493251 12.179884
LeftShoulder -10.149312 11.014410 29.297508
LeftArm 20.154857 -16.326636 -25.735480
LeftForeArm 20.200200 0.000000 13.140842
LeftHand -27.432722 -0.000000 -11.890711
LeftHandThumb1 -26.253704 0.000000 33.147579
RightShoulder -19.269996 19.455015 -37.853957
RightArm -3.479109 2.719622 30.256698
RightForeArm -36.906183 -0.000000 13.731464
RightHand -11.441360 -0.000000 17.696584
RightHandThumb1 -24.326973 -0.000000 -32.862282
LeftUpLeg -1.364471 9.332221 3.941898
LeftLeg -1.752708 -0.000000 0.000000
LeftFoot -4.944815 -4.173284 -18.027327
LeftToeBase 9.029857 -0.000000 -0.000000
RightUpLeg -1.137513 -10.948822 -6.662321
RightLeg 1.017354 -0.000000 -0.000000
RightFoot -4.072834 -2.173391 3.939265
RightToeBase -2.640129 -0.000000 0.000000
3036
root 1.505949 32.949631 0.822923 5.441751 2.386995 0.035662
Spine -5.611003 3.951006 -0.324179
Head -14.525394 -7.525917 12.191885
LeftShoulder -10.181463 11.044325 29.306173
LeftArm 20.221400 -16.466268 -25.803501
LeftForeArm 20.267696 0.000000 13.097851
LeftHand -27.361365 -0.000000 -11.939941
LeftHandThumb1 -26.253704 0.000000 33.147579
RightShoulder -19.288154 19.458754 -37.849174
RightArm -3.504085 2.742972 30.237467
RightForeArm -36.882153 -0.000000 13.746515
RightHand -11.454290 0.000000 17.685681
RightHandThumb1 -24.326973 -0.000000 -32.862282
LeftUpLeg -1.387173 9.459386 3.967949
LeftLeg -1.718612 -0.000000 0.000000
LeftFoot -4.976617 -4.254716 -18.149792
LeftToeBase 9.195163 -0.000000 -0.000000
RightUpLeg -1.120377 -10.949684 -6.630756
RightLeg 1.000517 -0.000000 -0.000000
RightFoot -4.070002 -2.190685 3.946268
RightToeBase -2.624686 -0.000000 0.000000
3037
root 1.506270 32.949838 0.823070 5.451619 2.405004 0.054899
Spine -5.642898 3.953099 -0.351105
Head -14.447774 -7.580728 12.183757
LeftShoulder -10.178827 11.031074 29.284115
LeftArm 20.225037 -16.570975 -25.810642
LeftForeArm 20.330048 0.000000 13.072921
LeftHand -27.328756 -0.000000 -11.883187
LeftHandThumb1 -26.253704 0.000000 33.147579
RightShoulder -19.310965 19.431588 -37.863111
RightArm -3.516924 2.791039 30.255171
RightForeArm -36.889028 -0.000000 13.765634
RightHand -11.527403 -0.000000 17.693490
RightHandThumb1 -24.326973 -0.000000 -32.862282
LeftUpLeg -1.374510 9.343285 3.953901
LeftLeg -1.770552 -0.000000 0.000000
LeftFoot -4.957346 -4.156742 -18.194618
LeftToeBase 9.132556 -0.000000 -0.000000
RightUpLeg -1.125311 -10.961376 -6.648250
RightLeg 1.002655 -0.000000 -0.000000
RightFoot -4.083726 -2.197842 3.966354
RightToeBase -2.578658 -0.000000 0.000000
3038
root 1.503382 32.949624 0.824002 5.453040 2.426429 0.049518
Spine -5.663003 3.939359 -0.354071
Head -14.383670 -7.614916 12.198623
LeftShoulder -10.205822 11.041468 29.272376
LeftArm 20.230711 -16.536676 -25.769734
LeftForeArm 20.273520 -0.000000 13.060956
LeftHand -27.382004 -0.000000 -11.853396
LeftHandThumb1 -26.253704 0.000000 33.147579
RightShoulder -19.326910 19.416815 -37.865057
RightArm -3.516911 2.804382 30.263219
RightForeArm -36.869742 0.000000 13.769044
RightHand -11.559501 -0.000000 17.679997
RightHandThumb1 -24.326973 -0.000000 -32.862282
LeftUpLeg -1.373691 9.309823 3.968462
LeftLeg -1.777835 -0.000000 0.000000
LeftFoot -4.962065 -4.153797 -18.204197
LeftToeBase 9.178660 -0.000000 -0.000000
RightUpLeg -1.116783 -10.964997 -6.638789
RightLeg 0.995781 -0.000000 -0.000000
RightFoot -4.089032 -2.198925 3.977139
RightToeBase -2.591514 -0.000000 0.000000
